<svg xmlns="http://www.w3.org/2000/svg" width="56" height="56" viewBox="0 0 56 56" fill="none">
  <path d="M29.4604 15.5444H26.1981V22.1641H29.4604V15.5444Z" fill="white"/>
  <path d="M28.0133 8.99951C16.9826 8.99951 8.04004 17.9417 8.04004 28.9728C8.04004 34.5479 10.3243 39.589 14.0079 43.2123L13.0684 50.7746C13.0212 51.154 13.4026 51.4423 13.7548 51.2934L21.7091 47.9307C23.6909 48.5895 25.8105 48.9464 28.0137 48.9464C39.0444 48.9464 47.9869 40.0042 47.9869 28.9731C47.9869 17.9421 39.0447 8.99983 28.0137 8.99983L28.0133 8.99951Z" fill="#80D741"/>
  <path d="M28.7004 16.7797H27.3385V21.7523H28.7004V16.7797Z" fill="#385D1D"/>
  <path d="M28.0351 19.0284C29.2771 19.0284 30.2839 18.0216 30.2839 16.7797C30.2839 15.5377 29.2771 14.5309 28.0351 14.5309C26.7931 14.5309 25.7863 15.5377 25.7863 16.7797C25.7863 18.0216 26.7931 19.0284 28.0351 19.0284Z" fill="#385D1D"/>
  <path d="M42.3771 35.0572C42.3771 27.12 35.9427 20.6853 28.0052 20.6853C20.0676 20.6853 13.6332 27.1196 13.6332 35.0572C13.6332 42.9948 42.3771 42.9944 42.3771 35.0572Z" fill="white"/>
  <path d="M31.7254 33.3763C31.7254 35.3042 30.1627 36.867 28.2348 36.867C26.3068 36.867 24.7441 35.3042 24.7441 33.3763H31.7254Z" fill="#385D1D"/>
  <path d="M21.2769 32.4454C22.6786 32.4454 23.8149 31.3092 23.8149 29.9075C23.8149 28.5058 22.6786 27.3695 21.2769 27.3695C19.8752 27.3695 18.739 28.5058 18.739 29.9075C18.739 31.3092 19.8752 32.4454 21.2769 32.4454Z" fill="#385D1D"/>
  <path d="M35.4347 32.4454C36.8364 32.4454 37.9726 31.3092 37.9726 29.9075C37.9726 28.5058 36.8364 27.3695 35.4347 27.3695C34.033 27.3695 32.8967 28.5058 32.8967 29.9075C32.8967 31.3092 34.033 32.4454 35.4347 32.4454Z" fill="#385D1D"/>
  <path d="M50.8989 29.7057C50.3051 29.7057 49.8233 29.2243 49.8233 28.6301C49.8233 16.6026 40.0383 6.81757 28.0108 6.81757C15.9833 6.81757 6.19823 16.6026 6.19823 28.6301C6.19823 29.224 5.7168 29.7057 5.12261 29.7057C4.52843 29.7057 4.047 29.2243 4.047 28.6301C4.047 25.3957 4.68077 22.2572 5.93059 19.3021C7.13765 16.4484 8.86541 13.8857 11.0657 11.6854C13.2661 9.48507 15.8287 7.75731 18.6824 6.55025C21.6375 5.30043 24.776 4.66666 28.0105 4.66666C31.2449 4.66666 34.3834 5.30043 37.3385 6.55025C40.1922 7.75731 42.7549 9.48507 44.9552 11.6854C47.1555 13.8857 48.8833 16.4484 50.0903 19.3021C51.3401 22.2572 51.9739 25.3957 51.9739 28.6301C51.9739 29.224 51.4925 29.7057 50.8983 29.7057H50.8989Z" fill="#385D1D"/>
  <path d="M8.9485 45.3598C7.5343 43.4347 6.38996 41.3291 5.54714 39.1012C4.67708 36.8024 4.13262 34.3829 3.92865 31.9102L4.91431 31.8288C5.30167 36.5221 6.97242 40.9988 9.74571 44.7745L8.94882 45.3598H8.9485Z" fill="#385D1D"/>
  <path d="M7.08171 39.9391L5.80596 40.6757C5.22621 41.0104 5.02757 41.7517 5.36229 42.3315L7.73079 46.4338C8.06551 47.0136 8.80684 47.2122 9.38659 46.8775L10.6623 46.141C11.2421 45.8062 11.4407 45.0649 11.106 44.4852L8.7375 40.3828C8.40278 39.803 7.66146 39.6044 7.08171 39.9391Z" fill="#80D741"/>
  <path d="M7.20485 35.658H4.24818C3.28722 35.658 2.5011 35.0531 2.5011 34.3135V24.9621C2.5011 24.2225 3.28722 23.6176 4.24818 23.6176H7.20485C7.38634 23.6176 7.53489 23.7319 7.53489 23.8716V35.404C7.53489 35.5437 7.38634 35.658 7.20485 35.658Z" fill="#385D1D"/>
  <path d="M6.04977 35.658H4.25391C3.24893 35.658 2.4267 35.0252 2.4267 34.2518V25.0235C2.4267 24.2501 3.24893 23.6172 4.25391 23.6172H6.04914C6.04914 23.6172 6.04945 23.6172 6.04945 23.6176V35.6577L6.04977 35.658Z" fill="#80D741"/>
  <path d="M48.8172 34.6442H51.7738C52.7348 34.6442 53.5209 34.0392 53.5209 33.2997V23.9482C53.5209 23.2087 52.7348 22.6037 51.7738 22.6037H48.8172C48.6357 22.6037 48.4871 22.718 48.4871 22.8577V34.3902C48.4871 34.5298 48.6357 34.6442 48.8172 34.6442Z" fill="#385D1D"/>
  <path d="M49.9722 34.6442H51.7681C52.7731 34.6442 53.5953 34.0114 53.5953 33.2379V24.0097C53.5953 23.2362 52.7731 22.6034 51.7681 22.6034H49.9729C49.9729 22.6034 49.9725 22.6034 49.9725 22.6037V34.6439L49.9722 34.6442Z" fill="#80D741"/>
</svg>